<?xml version="1.0" standalone="no"?>
<svg viewBox="0 0 200 200" xmlns="http://www.w3.org/2000/svg">
  <path fill="#188D8F" d="M44.6,-65.2C57.3,-61.2,66.9,-48,74.1,-33.5C81.4,-18.9,86.3,-2.9,82.6,10.7C78.9,24.4,66.5,35.6,55.1,46.5C43.8,57.4,33.4,68,21.8,68.9C10.2,69.9,-2.6,61.2,-18.4,58.5C-34.3,55.8,-53.1,59.1,-65.3,52.4C-77.5,45.8,-83,29.3,-82.7,13.5C-82.3,-2.2,-76.1,-17.1,-69.5,-31.8C-62.9,-46.6,-55.8,-61.2,-44.2,-65.8C-32.5,-70.3,-16.2,-64.7,-0.2,-64.5C15.9,-64.2,31.8,-69.3,44.6,-65.2Z" transform="translate(100 100)" />
</svg>
