<?xml version="1.0"?>
<svg xmlns="http://www.w3.org/2000/svg" xmlns:xlink="http://www.w3.org/1999/xlink" xmlns:svgjs="http://svgjs.com/svgjs" version="1.1" width="512" height="512" x="0" y="0" viewBox="0 0 512 512" style="enable-background:new 0 0 512 512" xml:space="preserve" class=""><g>
<g xmlns="http://www.w3.org/2000/svg">
	<g>
		<path d="M446.46,92.443l-52.031-54.608h0.871c8.281,0,14.994-6.713,14.994-14.994s-6.713-14.994-14.994-14.994H116.698    c-8.281,0-14.994,6.713-14.994,14.994s6.713,14.994,14.994,14.994h0.871l-52.03,54.608c-87.386,91.714-87.386,235.4,0,327.114    l4.823,5.062c21.507,22.573,46.531,40.753,74.492,54.18c-2.578,2.693-4.171,6.337-4.171,10.36c0,8.281,6.713,14.994,14.994,14.994    h200.644c8.281,0,14.994-6.713,14.994-14.994c0-4.023-1.593-7.667-4.171-10.36c27.961-13.427,52.985-31.607,74.492-54.179    l4.823-5.063C533.846,327.843,533.846,184.157,446.46,92.443z M251.802,87.923c22.935,0,41.528,18.593,41.528,41.528    s-18.593,41.528-41.528,41.528c-22.935,0-41.528-18.592-41.528-41.528C210.275,106.516,228.867,87.923,251.802,87.923z     M188.783,192.681c13.406,0,24.273,10.867,24.273,24.273s-10.868,24.273-24.273,24.273c-13.405,0-24.273-10.867-24.273-24.273    C164.51,203.548,175.377,192.681,188.783,192.681z M372.693,345.756c6.243,5.44,6.894,14.912,1.454,21.156    c-2.964,3.402-7.126,5.144-11.31,5.144c-3.495,0-7.003-1.214-9.845-3.69l-18.193-15.853    c-15.086,13.793-42.28,33.544-74.309,33.544c-29.856,0-59.214-17.114-78.585-31.471c-7.877-5.837-12.394-14.807-12.394-24.611    c0-9.804,4.517-18.774,12.394-24.611c19.371-14.356,48.729-31.471,78.585-31.471c32.03,0,59.223,19.751,74.309,33.544    l18.193-15.853c6.242-5.439,15.715-4.79,21.155,1.454s4.789,15.715-1.454,21.156l-18.111,15.782L372.693,345.756z" fill="#105963" data-original="#000000" style=""/>
	</g>
</g>
<g xmlns="http://www.w3.org/2000/svg">
</g>
<g xmlns="http://www.w3.org/2000/svg">
</g>
<g xmlns="http://www.w3.org/2000/svg">
</g>
<g xmlns="http://www.w3.org/2000/svg">
</g>
<g xmlns="http://www.w3.org/2000/svg">
</g>
<g xmlns="http://www.w3.org/2000/svg">
</g>
<g xmlns="http://www.w3.org/2000/svg">
</g>
<g xmlns="http://www.w3.org/2000/svg">
</g>
<g xmlns="http://www.w3.org/2000/svg">
</g>
<g xmlns="http://www.w3.org/2000/svg">
</g>
<g xmlns="http://www.w3.org/2000/svg">
</g>
<g xmlns="http://www.w3.org/2000/svg">
</g>
<g xmlns="http://www.w3.org/2000/svg">
</g>
<g xmlns="http://www.w3.org/2000/svg">
</g>
<g xmlns="http://www.w3.org/2000/svg">
</g>
</g></svg>
