<?xml version="1.0"?>
<svg xmlns="http://www.w3.org/2000/svg" xmlns:xlink="http://www.w3.org/1999/xlink" xmlns:svgjs="http://svgjs.com/svgjs" version="1.1" width="512" height="512" x="0" y="0" viewBox="0 0 407.814 407.814" style="enable-background:new 0 0 512 512" xml:space="preserve" class=""><g>
<g xmlns="http://www.w3.org/2000/svg">
	<path d="M353.985,203.905c35.145-20.995,47.049-66.379,26.508-101.954c-20.54-35.575-65.794-47.957-101.547-28.017   C278.336,33.001,244.985,0,203.907,0c-41.079,0-74.431,33.001-75.039,73.937c-35.754-19.94-81.01-7.557-101.549,28.02   C6.78,137.531,18.683,182.915,53.83,203.908c-35.146,20.995-47.05,66.379-26.51,101.954c20.54,35.576,65.796,47.958,101.55,28.017   c0.607,40.936,33.96,73.938,75.039,73.936c41.08,0,74.43-33.002,75.038-73.936c35.754,19.939,81.011,7.557,101.548-28.021   C401.035,270.282,389.13,224.898,353.985,203.905z M203.907,272.65c-37.966,0-68.744-30.777-68.744-68.744   s30.778-68.744,68.744-68.744c37.965,0,68.744,30.777,68.744,68.744S241.873,272.65,203.907,272.65z" fill="#e7578d" data-original="#000000" style="" class=""/>
</g>
<g xmlns="http://www.w3.org/2000/svg">
</g>
<g xmlns="http://www.w3.org/2000/svg">
</g>
<g xmlns="http://www.w3.org/2000/svg">
</g>
<g xmlns="http://www.w3.org/2000/svg">
</g>
<g xmlns="http://www.w3.org/2000/svg">
</g>
<g xmlns="http://www.w3.org/2000/svg">
</g>
<g xmlns="http://www.w3.org/2000/svg">
</g>
<g xmlns="http://www.w3.org/2000/svg">
</g>
<g xmlns="http://www.w3.org/2000/svg">
</g>
<g xmlns="http://www.w3.org/2000/svg">
</g>
<g xmlns="http://www.w3.org/2000/svg">
</g>
<g xmlns="http://www.w3.org/2000/svg">
</g>
<g xmlns="http://www.w3.org/2000/svg">
</g>
<g xmlns="http://www.w3.org/2000/svg">
</g>
<g xmlns="http://www.w3.org/2000/svg">
</g>
</g></svg>
